<svg width="32" height="27" viewBox="0 0 32 27" fill="none" xmlns="http://www.w3.org/2000/svg">
<g clip-path="url(#clip0)">
<path d="M11.805 18.4128C11.3751 17.9715 11.5992 18.0959 10.5621 17.811C10.0916 17.6815 9.67792 17.4327 9.30385 17.1346L7.05898 22.7835C6.84177 23.3304 7.2475 23.9246 7.82245 23.9022L10.4295 23.8001L12.2226 25.7441C12.6185 26.1726 13.3132 26.0391 13.5304 25.4922L16.1058 19.0115C15.5694 19.3182 14.9742 19.498 14.3586 19.498C13.3938 19.498 12.4873 19.1125 11.805 18.4128ZM25.9402 22.7835L23.6954 17.1346C23.3213 17.4332 22.9077 17.6815 22.4371 17.811C21.3946 18.0974 21.6232 17.9725 21.1942 18.4128C20.5119 19.1125 19.6049 19.498 18.6401 19.498C18.0246 19.498 17.4293 19.3177 16.893 19.0115L19.4684 25.4922C19.6856 26.0391 20.3808 26.1726 20.7761 25.7441L22.5697 23.8001L25.1768 23.9022C25.7517 23.9246 26.1575 23.3299 25.9402 22.7835ZM20.0126 17.2636C20.7687 16.4739 20.8553 16.542 21.9319 16.2409C22.6192 16.0484 23.1565 15.4873 23.3406 14.7692C23.7107 13.327 23.6147 13.5012 24.6246 12.446C25.1278 11.9204 25.3242 11.1541 25.1402 10.4361C24.7706 8.99488 24.7701 9.19597 25.1402 7.75328C25.3242 7.03523 25.1278 6.26894 24.6246 5.74336C23.6147 4.68812 23.7107 4.86179 23.3406 3.42012C23.1565 2.70207 22.6192 2.14094 21.9319 1.94848C20.5525 1.56203 20.7187 1.66308 19.7078 0.607343C19.2046 0.0817571 18.4709 -0.123907 17.7836 0.068554C16.4046 0.454491 16.5971 0.454999 15.2156 0.068554C14.5284 -0.123907 13.7946 0.0812493 13.2914 0.607343C12.2815 1.66258 12.4478 1.56203 11.0678 1.94848C10.3805 2.14094 9.84318 2.70207 9.65912 3.42012C9.28951 4.86179 9.385 4.68812 8.37513 5.74336C7.87193 6.26894 7.675 7.03523 7.85956 7.75328C8.22917 9.19343 8.22966 8.99234 7.85956 10.4355C7.67549 11.1536 7.87193 11.9199 8.37513 12.446C9.385 13.5012 9.28901 13.327 9.65912 14.7692C9.84318 15.4873 10.3805 16.0484 11.0678 16.2409C12.1751 16.5506 12.2578 16.5019 12.9866 17.2636C13.6412 17.9476 14.661 18.07 15.4477 17.5591C15.7623 17.3542 16.1272 17.2453 16.4999 17.2453C16.8725 17.2453 17.2374 17.3542 17.552 17.5591C18.3383 18.07 19.358 17.9476 20.0126 17.2636ZM11.8317 8.93343C11.8317 6.24051 13.9217 4.05742 16.4996 4.05742C19.0775 4.05742 21.1675 6.24051 21.1675 8.93343C21.1675 11.6264 19.0775 13.8094 16.4996 13.8094C13.9217 13.8094 11.8317 11.6264 11.8317 8.93343Z" fill="white"/>
</g>
<defs>
<clipPath id="clip0">
<rect width="19" height="26" fill="white" transform="translate(7)"/>
</clipPath>
</defs>
</svg>
