<svg width="32" height="27" viewBox="0 0 32 27" fill="none" xmlns="http://www.w3.org/2000/svg">
<path d="M28.7669 12.1883C28.3832 12.1911 28.0032 12.2643 27.645 12.4044L23.8181 9.21461C23.9123 8.86687 23.9793 8.50612 23.9793 8.12588C23.9793 5.87368 22.2015 4.06348 19.9897 4.06348C17.7778 4.06348 16.0001 5.87368 16.0001 8.12588C16.0001 8.76937 16.1596 9.36898 16.4182 9.90847L11.7758 15.4951C11.59 15.4597 11.4015 15.4406 11.2125 15.4382C10.9268 15.4382 10.6571 15.487 10.3954 15.5585L6.30523 11.3937C6.37705 11.1288 6.42492 10.8542 6.42492 10.5633C6.42492 8.76287 5.00142 7.3134 3.23321 7.3134C1.46501 7.3134 0.0415039 8.76287 0.0415039 10.5633C0.0415039 12.3638 1.46501 13.8133 3.23321 13.8133C3.51887 13.8133 3.78857 13.7645 4.05029 13.693L8.14047 17.8578C8.06376 18.1278 8.02349 18.4071 8.02078 18.6881C8.02078 20.4886 9.44428 21.9381 11.2125 21.9381C12.9807 21.9381 14.4042 20.4886 14.4042 18.6881C14.4042 18.303 14.3276 17.9407 14.2079 17.5978L18.8566 12.0047C19.2189 12.1119 19.5939 12.1883 19.9897 12.1883C20.6195 12.1847 21.2394 12.0282 21.7978 11.7317L25.6263 14.9215C25.5962 15.0921 25.5791 15.2649 25.5752 15.4382C25.5752 17.2387 26.9987 18.6881 28.7669 18.6881C30.5351 18.6881 31.9586 17.2387 31.9586 15.4382C31.9586 13.6378 30.5351 12.1883 28.7669 12.1883Z" fill="white"/>
</svg>
