<svg width="32" height="27" viewBox="0 0 32 27" fill="none" xmlns="http://www.w3.org/2000/svg">
<g clip-path="url(#clip0)">
<path opacity="0.15" d="M27.553 7.83008H5.44681C5.43668 7.83008 5.42993 7.83683 5.42993 7.84695V10.925C5.42993 12.9432 7.08368 14.5801 9.1188 14.5801C10.4924 14.5801 11.6906 13.8376 12.3284 12.734C12.4263 12.5618 12.6119 12.4538 12.8111 12.4538C13.0102 12.4538 13.1924 12.5618 13.2937 12.734C13.9282 13.8376 15.1263 14.5801 16.4999 14.5801C17.8769 14.5801 19.0784 13.8342 19.7095 12.7272C19.8074 12.5585 19.9863 12.4538 20.1787 12.4538H20.1989C20.3947 12.4538 20.5702 12.5585 20.668 12.7272C21.3025 13.8342 22.504 14.5801 23.881 14.5801C25.9162 14.5801 27.5699 12.9432 27.5699 10.925V7.84695C27.5699 7.83683 27.5632 7.83008 27.553 7.83008Z" fill="white"/>
<path d="M28.9875 5.40338V1.08C28.9875 0.482625 28.5049 0 27.9075 0H5.09252C4.49514 0 4.01252 0.482625 4.01252 1.08V5.40338C3.4489 5.43713 3.00002 5.90625 3.00002 6.48V10.9249C2.99786 11.7418 3.16327 12.5504 3.48602 13.3009C3.63115 13.6451 3.81002 13.9691 4.01252 14.2763V25.92C4.01252 26.514 4.49514 27 5.09252 27H27.9075C28.5049 27 28.9875 26.5174 28.9875 25.92V14.2763C29.1932 13.9683 29.3695 13.6418 29.514 13.3009C29.8346 12.5483 30 11.7484 30 10.9249V6.48C30 5.90625 29.5511 5.43713 28.9875 5.40338ZM6.44252 2.43H26.5575V5.4H6.44252V2.43ZM18.66 24.5734H14.34V21.06H18.66V24.5734ZM26.571 24.5734H20.82V19.98C20.82 19.3826 20.3374 18.9 19.74 18.9H13.26C12.6626 18.9 12.18 19.3826 12.18 19.98V24.5734H6.44252V16.3991C6.54039 16.4464 6.64164 16.4936 6.74627 16.5341C7.49889 16.8514 8.29877 17.01 9.12227 17.01C9.94577 17.01 10.7423 16.8514 11.4983 16.5341C11.964 16.3384 12.4028 16.0886 12.8044 15.7882C12.8111 15.7849 12.8179 15.7849 12.8246 15.7882C13.2275 16.0899 13.6662 16.3404 14.1308 16.5341C14.8834 16.8514 15.6833 17.01 16.5068 17.01C17.3303 17.01 18.1268 16.8514 18.8828 16.5341C19.3485 16.3384 19.7873 16.0886 20.1889 15.7882C20.1956 15.7849 20.2024 15.7849 20.2091 15.7882C20.612 16.0899 21.0507 16.3404 21.5153 16.5341C22.2679 16.8514 23.0678 17.01 23.8913 17.01C24.7148 17.01 25.5113 16.8514 26.2673 16.5341C26.3685 16.4903 26.4698 16.4464 26.571 16.3991V24.5734ZM27.57 10.9249C27.57 12.9431 25.9163 14.58 23.8811 14.58C22.5041 14.58 21.3026 13.8341 20.6681 12.7271C20.5703 12.5584 20.3948 12.4538 20.199 12.4538H20.1788C19.9864 12.4538 19.8075 12.5584 19.7096 12.7271C19.3858 13.2918 18.9183 13.7607 18.3546 14.0862C17.7908 14.4116 17.1509 14.582 16.5 14.58C15.1264 14.58 13.9283 13.8375 13.2938 12.7339C13.1925 12.5618 13.0103 12.4538 12.8111 12.4538C12.612 12.4538 12.4264 12.5618 12.3285 12.7339C12.0028 13.2964 11.5347 13.7632 10.9712 14.0873C10.4078 14.4114 9.7689 14.5813 9.11889 14.58C7.08377 14.58 5.43002 12.9431 5.43002 10.9249V7.84688C5.43002 7.83675 5.43677 7.83 5.44689 7.83H27.5531C27.5633 7.83 27.57 7.83675 27.57 7.84688V10.9249Z" fill="white"/>
</g>
<defs>
<clipPath id="clip0">
<rect width="32" height="26.353" fill="white"/>
</clipPath>
</defs>
</svg>
