<svg width="32" height="27" viewBox="0 0 32 27" fill="none" xmlns="http://www.w3.org/2000/svg">
<g clip-path="url(#clip0)">
<g clip-path="url(#clip1)">
<path d="M19.428 6.74951H27.4266V9.04639H19.428V6.74951Z" fill="white"/>
<path d="M19.428 12.4917H27.4266V14.7886H19.428V12.4917Z" fill="white"/>
<path d="M19.428 18.2339H27.4266V20.5308H19.428V18.2339Z" fill="white"/>
<path d="M29.7119 1.00732H2.28824C1.68232 1.00793 1.1014 1.25012 0.672949 1.68074C0.244502 2.11135 0.0035347 2.69522 0.00292969 3.3042V23.9761C0.0035347 24.5851 0.244502 25.169 0.672949 25.5996C1.1014 26.0302 1.68232 26.2724 2.28824 26.273H29.7119C30.3177 26.2721 30.8985 26.0298 31.3269 25.5992C31.7553 25.1687 31.9963 24.585 31.9972 23.9761V3.3042C31.9966 2.69522 31.7557 2.11135 31.3272 1.68074C30.8988 1.25012 30.3178 1.00793 29.7119 1.00732ZM2.28824 3.3042H14.8574V23.9761H2.28824V3.3042ZM17.1427 23.9761V3.3042H29.7119L29.7142 23.9761H17.1427Z" fill="white"/>
</g>
</g>
<defs>
<clipPath id="clip0">
<rect width="32" height="26.353" fill="white"/>
</clipPath>
<clipPath id="clip1">
<rect width="32" height="25.28" fill="white" transform="translate(0 1)"/>
</clipPath>
</defs>
</svg>
